<svg width="32" height="33" viewBox="0 0 32 33" fill="none" xmlns="http://www.w3.org/2000/svg">
<g clip-path="url(#clip0)">
<path d="M23.3711 0.284668H9.36158C4.604 0.284668 0.733398 4.33482 0.733398 9.31285V23.9716C0.733398 28.9498 4.604 32.9998 9.36158 32.9998H23.3711C28.1291 32.9998 31.9997 28.9496 31.9997 23.9716V9.31285C31.9999 4.33482 28.1291 0.284668 23.3711 0.284668ZM29.2258 23.9716C29.2258 27.3493 26.5994 30.0971 23.3713 30.0971H9.36158C6.13364 30.0973 3.5075 27.3493 3.5075 23.9716V9.31285C3.5075 5.93534 6.13364 3.18731 9.36158 3.18731H23.3711C26.5993 3.18731 29.2256 5.93534 29.2256 9.31285V23.9716H29.2258Z" fill="white"/>
<path d="M16.3666 8.21277C11.9242 8.21277 8.31006 11.9943 8.31006 16.6426C8.31006 21.2907 11.9242 25.0721 16.3666 25.0721C20.809 25.0721 24.4231 21.2907 24.4231 16.6426C24.4231 11.9943 20.809 8.21277 16.3666 8.21277ZM16.3666 22.1693C13.454 22.1693 11.0842 19.69 11.0842 16.6424C11.0842 13.5947 13.4538 11.1152 16.3666 11.1152C19.2794 11.1152 21.649 13.5947 21.649 16.6424C21.649 19.69 19.2792 22.1693 16.3666 22.1693Z" fill="white"/>
<path d="M24.7609 5.75146C24.2264 5.75146 23.7014 5.97787 23.3239 6.37457C22.9446 6.76933 22.7266 7.31889 22.7266 7.88007C22.7266 8.43951 22.9448 8.98888 23.3239 9.38557C23.7012 9.78033 24.2264 10.0087 24.7609 10.0087C25.2972 10.0087 25.8206 9.78033 26.1997 9.38557C26.5789 8.98888 26.7952 8.43931 26.7952 7.88007C26.7952 7.31889 26.5789 6.76933 26.1997 6.37457C25.8225 5.97787 25.2972 5.75146 24.7609 5.75146Z" fill="white"/>
</g>
<defs>
<clipPath id="clip0">
<rect width="31.2665" height="32.7153" fill="white" transform="translate(0.733398 0.284668)"/>
</clipPath>
</defs>
</svg>
