<svg width="26" height="33" viewBox="0 0 26 33" fill="none" xmlns="http://www.w3.org/2000/svg">
<path d="M25.6882 3.71482C25.5012 3.59099 25.3141 3.59099 25.1271 3.65291C23.5683 4.33396 21.9472 3.83865 21.012 2.60038C20.5755 2.04315 20.3261 1.30019 20.3261 0.619137C20.3261 0.433396 20.2638 0.309568 20.1391 0.185741C20.0144 0.0619135 19.8897 0 19.7026 0H13.3429C12.9688 0 12.7194 0.247655 12.7194 0.619137V22.5985C12.7194 22.6604 12.7194 22.6604 12.7194 22.7223C12.5947 23.8368 11.7218 24.6417 10.5995 24.6417C9.41487 24.6417 8.41727 23.651 8.41727 22.4747C8.41727 21.3602 9.22782 20.4934 10.3501 20.3696C10.6619 20.3077 10.9113 20.06 10.9113 19.7505V12.5685C10.9113 12.197 10.6619 11.9493 10.2878 11.9493C10.2878 11.9493 10.2254 11.9493 10.1631 11.9493C4.42686 12.197 0 16.7786 0 22.4747C0 28.2946 4.73861 33 10.5995 33C16.0863 33 20.7002 28.7899 21.1367 23.4034C21.199 23.3415 21.199 23.2176 21.199 23.1557V11.2064C22.5707 11.5159 24.0048 11.6398 25.5012 11.3921C25.8129 11.3302 26 11.0826 26 10.773V4.21013C26 4.02439 25.8753 3.83865 25.6882 3.71482Z" fill="white"/>
</svg>
