<svg width="43" height="43" viewBox="0 0 43 43" fill="none" xmlns="http://www.w3.org/2000/svg">
<path d="M40.1333 9.94304C38.7616 10.5522 37.2882 10.9621 35.7416 11.147C37.3211 10.201 38.5323 8.70321 39.1028 6.91728C37.6264 7.79304 35.9896 8.42944 34.2466 8.77344C32.852 7.28708 30.8654 6.35828 28.6667 6.35828C24.4441 6.35828 21.0213 9.78251 21.0213 14.0037C21.0213 14.6028 21.0901 15.1876 21.2191 15.7452C14.8651 15.427 9.2321 12.3826 5.45957 7.75578C4.8031 8.88524 4.42613 10.1982 4.42613 11.6014C4.42613 14.2531 5.7749 16.5937 7.826 17.964C6.57327 17.9238 5.39363 17.5798 4.36307 17.0079C4.36307 17.0409 4.36307 17.071 4.36307 17.104C4.36307 20.8091 6.99753 23.8994 10.4963 24.6003C9.8556 24.7752 9.17907 24.8683 8.48103 24.8683C7.9894 24.8683 7.50923 24.8196 7.0434 24.7322C8.01663 27.7694 10.8403 29.981 14.1857 30.0427C11.5699 32.0938 8.2732 33.3164 4.68987 33.3164C4.07353 33.3164 3.46437 33.2806 2.86523 33.2089C6.24933 35.3775 10.267 36.6432 14.5856 36.6432C28.6495 36.6432 36.3379 24.993 36.3379 14.8895C36.3379 14.5584 36.3307 14.2287 36.3164 13.9005C37.8113 12.8212 39.1085 11.4753 40.1333 9.94304Z" fill="white"/>
</svg>
