<svg width="33" height="25" viewBox="0 0 33 25" fill="none" xmlns="http://www.w3.org/2000/svg">
<path d="M32.213 4.56435C31.8349 3.11848 30.7266 1.97871 29.3211 1.58939C26.7534 0.86676 16.4825 0.86676 16.4825 0.86676C16.4825 0.86676 6.21198 0.86676 3.6443 1.56199C2.26583 1.9509 1.13049 3.11868 0.752376 4.56435C0.0766602 7.20518 0.0766602 12.6819 0.0766602 12.6819C0.0766602 12.6819 0.0766602 18.1863 0.752376 20.7995C1.13089 22.2452 2.23879 23.385 3.6445 23.7743C6.23902 24.4971 16.4829 24.4971 16.4829 24.4971C16.4829 24.4971 26.7534 24.4971 29.3211 23.8019C30.7268 23.4128 31.8349 22.273 32.2134 20.8273C32.889 18.1863 32.889 12.7097 32.889 12.7097C32.889 12.7097 32.916 7.20518 32.213 4.56435ZM13.2125 17.7416V7.62232L21.7533 12.6819L13.2125 17.7416Z" fill="white"/>
</svg>
